{
  "accessors": [
    {
      "bufferView": 1,
      "componentType": 5126,
      "count": 964,
      "max": [
        1.6810499429702759,
        0.12408000230789185,
        5.7175798416137695
      ],
      "min": [
        -1.6810499429702759,
        -0.9339900016784668,
        -0.028699999675154686
      ],
      "type": "VEC3"
    },
    {
      "bufferView": 1,
      "byteOffset": 11568,
      "componentType": 5126,
      "count": 964,
      "max": [
        0.9933586716651917,
        0.9988319277763367,
        0.9846383333206177
      ],
      "min": [
        -0.9933586716651917,
        -0.9742271900177002,
        -0.999727725982666
      ],
      "type": "VEC3"
    },
    {
      "bufferView": 0,
      "componentType": 5125,
      "count": 1416,
      "type": "SCALAR"
    }
  ],
  "asset": {
    "extras": {
      "author": "Robin Butler (https://sketchfab.com/StarTrekGuy)",
      "license": "CC-BY-4.0 (http://creativecommons.org/licenses/by/4.0/)",
      "source": "https://sketchfab.com/3d-models/proportional-low-poly-man-free-download-0bfd0e2b49a348a4b64b20cc8196e3b3",
      "title": "Proportional Low Poly Man | FREE Download |"
    },
    "generator": "Sketchfab-12.68.0",
    "version": "2.0"
  },
  "bufferViews": [
    {
      "buffer": 0,
      "byteLength": 5664,
      "name": "floatBufferViews",
      "target": 34963
    },
    {
      "buffer": 0,
      "byteLength": 23136,
      "byteOffset": 5664,
      "byteStride": 12,
      "name": "floatBufferViews",
      "target": 34962
    }
  ],
  "buffers": [
    {
      "byteLength": 28800,
      "uri": "scene.bin"
    }
  ],
  "materials": [
    {
      "doubleSided": true,
      "name": "Scene_-_Root",
      "pbrMetallicRoughness": {
        "metallicFactor": 0.0,
        "roughnessFactor": 0.6
      }
    }
  ],
  "meshes": [
    {
      "name": "BASE_Low Poly Man_0",
      "primitives": [
        {
          "attributes": {
            "NORMAL": 1,
            "POSITION": 0
          },
          "indices": 2,
          "material": 0,
          "mode": 4
        }
      ]
    }
  ],
  "nodes": [
    {
      "children": [
        1
      ],
      "matrix": [
        1.0,
        0.0,
        0.0,
        0.0,
        0.0,
        2.220446049250313e-16,
        -1.0,
        0.0,
        0.0,
        1.0,
        2.220446049250313e-16,
        0.0,
        0.0,
        0.0,
        0.0,
        1.0
      ],
      "name": "Sketchfab_model"
    },
    {
      "children": [
        2
      ],
      "name": "Root"
    },
    {
      "children": [
        3
      ],
      "name": "BASE_Low Poly Man"
    },
    {
      "mesh": 0,
      "name": "BASE_Low Poly Man_0"
    }
  ],
  "scene": 0,
  "scenes": [
    {
      "name": "Sketchfab_Scene",
      "nodes": [
        0
      ]
    }
  ]
}
